<?xml version="1.0" encoding="utf-8"?>
<!-- Generator: Adobe Illustrator 19.0.0, SVG Export Plug-In . SVG Version: 6.00 Build 0)  -->
<svg version="1.1" id="Capa_2" xmlns="http://www.w3.org/2000/svg" xmlns:xlink="http://www.w3.org/1999/xlink" x="0px" y="0px"
	 viewBox="0 0 394 459" style="enable-background:new 0 0 394 459;" xml:space="preserve">
<style type="text/css">
	.st0{fill-rule:evenodd;clip-rule:evenodd;fill:none;stroke:#000000;stroke-miterlimit:10;}
</style>
<path class="st0" d="M149.9,155.2c-5-2-8-7.6-8.2-13c-0.3-5.4,1.7-10.7,4.2-15.5c4.4-8.7,10.9-17,20-20.8c7.8-3.3,16.7-2.9,25-1.7
	c12.8,1.9,25.3,5.7,37.1,11.1c6.9,3.2,13.7,7.2,18.1,13.4c4.4,6.2,5.7,15,1.5,21.3"/>
<path class="st0" d="M153.7,165.1c1.3,8,0.3,16.4-3,23.8c-0.3,0.7-0.7,1.5-0.6,2.2c0.1,0.8,0.6,1.5,1.1,2.2c3,3.7,6.4,7,10.2,9.9
	c1.7,1.3,4,2.6,5.9,1.5c1.2-0.7,2.2-2.3,3.6-2.1c0.7,0.1,1.2,0.7,1.6,1.2c2.7,3.9,1.7,9.2,3.3,13.6c2.6,7,13,9.5,18.5,4.5
	c2,2.7,4.1,5.3,6.4,7.7c0.7,0.7,1.5,1.5,2.5,1.5c0.9,0,1.6-0.7,2.3-1.3c2.6-2.6,4.9-5.4,6.9-8.5c3.3,3.1,8.2,4.7,12.5,3.4
	c4.3-1.4,7.5-6.3,6.1-10.6c-0.7-2.4-2.7-5.1-1.1-7.2c1.5-2,4.6-1,7-1.4c3.6-0.6,5.7-4.7,5.7-8.3s-1.4-7.1-2.3-10.7
	c-0.9-3.5-1-7.6,1.3-10.5"/>
<path class="st0" d="M188.6,179.4c-6.2-5.8-13.1-10.9-20.3-15.2c-2.5,4.5-3.5,9.8-2.8,14.8c0.1,0.7,0.3,1.4,0.7,2
	c0.4,0.6,1.1,1,1.7,1.4c6.1,3.4,13.2,4.2,20.2,5c0.6,0.1,1.3,0.1,1.9-0.3s0.5-1.4-0.1-1.5"/>
<path class="st0" d="M205.8,181.6c1.9,3.3,5.9,4.8,9.6,5.6c3.9,0.9,8,1.3,12,1.3c0.9,0,1.8-0.1,2.4-0.7c0.6-0.6,0.7-1.4,0.7-2.2
	c0.2-2.7,0.4-5.5-0.7-8c-1.4-3.2-4.9-5.2-8.3-5.8c-3.5-0.6-7,0-10.5,0.5"/>
<path class="st0" d="M195.9,185.4c-1.4,2.7-2.8,5.5-4.2,8.2c-0.6,1.2-1.2,2.6-0.4,3.7c0.6,0.8,1.7,1,2.6,1.2
	c4.5,0.6,9.1,0.9,13.6,0.9c-3.4-2.5-6.1-6-7.6-9.9"/>
<path class="st0" d="M244.3,206.6c5.6-4,7.7-11.2,8.7-17.9c1-6.8,1.4-13.9,4.8-19.8c5.6-9.7,17.7-13.7,28.9-14.4
	c19.6-1.3,40.7,5.4,52.2,21.3c4.4,6.1,7.3,14.4,3.6,21c-2.5,4.4-7.4,6.9-12.3,7.7c-4.9,0.8-10,0.1-14.9-0.5
	c-6.6-0.9-13.5-1.9-19-5.8c4.1,0.1,8.3,0.3,12.2-1c3.9-1.3,7.5-4.3,8.3-8.3c0.6-3-0.4-6-1.8-8.7c-3.5-6.5-9.9-11.3-17.1-12.8
	c-3-0.6-6.3-0.7-8.8,1.1c-4,2.8-4,8.4-4.6,13.2c-2.1,17.6-17.3,32.7-34.9,34.6"/>
<path class="st0" d="M278,218.8c10.7,2.9,22.5-2.9,32.8,0.9c2.6,1,4.9,2.5,7.1,4.2c12.8,10,20.5,26.5,19.2,42.6
	s-11.6,31.5-26.3,38.3c-9.1,4.2-20,5.1-29.1,0.8c-3.6-1.7-6.9-4.2-9.5-7.2c-8-9.3-9.1-23.7-2.8-34.3c4.9,6,9.9,12.1,16.5,16.1
	c6.6,4,15.1,5.7,22.1,2.2c7.7-3.8,11.6-14,8.3-22c-2.3-5.6-7.4-9.7-12.8-12.5c-11.2-6-24.4-8.1-36.9-5.8c-10.8,2-22.5,7-32.1,1.7"/>
<path class="st0" d="M214.5,256.5c7.3,0.3,13.9,4,20.2,7.6c10.8,6.3,21.5,12.7,30.4,21.4c8.9,8.7,15.8,19.9,17.2,32.3
	c0.7,6.3-0.2,12.8-2,18.9c-2.3,7.6-6.4,14.9-12.5,20c-6.1,5.1-14.4,7.9-22.2,6.4c-8.2-1.6-14.8-7.4-20.9-13.1
	c-3.8-3.5-7.7-7.4-8.9-12.4c-0.8-3-0.5-6.2-1-9.2c-0.9-5.5-4.1-10.3-6.1-15.6c-2-5.2-2.7-11.7,1.1-15.9c6.9,10.2,16.1,18.8,26.7,25
	c3.4,2,7.2,3.8,11.2,3.8c8.4,0,15.2-9.7,12.3-17.6c-1.6-4.4-5.4-7.6-9-10.5c-7.6-6.2-15.3-12.4-22.9-18.7
	c-6.1-5-12.7-10.8-13.6-18.7"/>
<path class="st0" d="M198.3,243.3c-4.3,5.1-7,11.5-7.6,18.1c-0.1,1.4-0.2,2.8-0.8,4c-1.3,2.2-4.2,2.8-6.6,3.4
	c-9,2.2-16.8,7.8-24.2,13.3c-4.9,3.6-10,7.4-12.8,12.9c-4.9,9.7-0.9,21.4,3.5,31.4c1.9,4.2,3.9,8.5,7.2,11.8s8.1,5.4,12.6,4.3
	c7.1-1.7,10.2-10.4,9.4-17.6c-0.8-7.2-4.4-13.8-5.8-21c6,0.2,10.8,4.9,14.7,9.4c4.7,5.4,9.4,11.6,9.6,18.7
	c0.2,8.1-5.8,15.6-13.4,18.5c-7.6,2.9-16.3,1.6-23.6-2.1s-13.3-9.4-18.6-15.6c-7.1-8.3-13.4-18.6-12.3-29.5
	c0.7-7.3,4.7-13.8,9.4-19.5c4.2-5,9.2-9.6,15.2-12.2c6.4-2.8,13.6-3.3,20.3-5.1c9.7-2.6,18.6-8,25.2-15.5"/>
<path class="st0" d="M183.4,237.4c-8.8-1.4-16,6.7-24.3,9.8c-9.8,3.6-20.5,0.1-30.3-3.6s-20.2-7.6-30.2-4.9c-7,1.9-13,7.2-15.5,13.9
	c-2.5,6.8-1.3,14.9,3.3,20.4c6.3,7.7,17.2,9.4,27.1,10.6c4.9,0.6,11.1,0.6,13.4-3.7c2.6-4.8-1.9-10.9-0.4-16.2
	c-1.5,9.4-6.6,18-13,25.1c-6.4,7.1-14.1,12.9-21.7,18.7c-0.8,0.6-1.7,1.3-2.7,1.3c-1.5,0-2.6-1.2-3.5-2.3
	c-4.2-5.1-8.4-10.2-12.5-15.3c-5-6.1-10.2-12.7-11-20.5c-1.2-11.3,6.9-21.6,7.5-32.9c0.2-4.5-0.3-9.9,3.4-12.5
	c1.6-1.1,3.5-1.4,5.4-1.6c27.5-3,55.5-1.9,82.8,3.2"/>
<path class="st0" d="M145.9,220c-19.3-5.2-35.4-21.8-38.4-41.6c-0.5-3.1-0.6-6.4-1.5-9.4c-1.9-6.8-9.1-12.8-15.8-10.6
	c-6.8,2.2-9.1,11.7-5.7,18c3.4,6.3,10.6,9.7,17.7,10.9c-8,4.3-18.9,2.6-25-4.2c-6-6.8-6.3-18.2-0.2-25c4.1-4.6,10.3-6.8,16.3-8.1
	c11.1-2.3,23.1-2.1,33.5,2.5c10.4,4.6,19,13.9,21.2,25.1c0.7,3.5,0.7,7.2,1.5,10.7c1.3,5.8,4.5,11,7.6,16.1"/>
<path class="st0" d="M213,75.2c-31.7-3.6-60.8,16.2-91.6,24.6c-17.2,4.7-35.7,6-51.4,14.4c-28.9,15.4-41.3,50.3-45.2,82.8
	c-4.8,39.9-0.4,81.8,18,117.5s51.8,64.8,91.2,72.8c13.6,2.8,27.5,3.1,41.3,4.9c28.4,3.8,55.7,14,84.2,17c14.3,1.5,29.9,0.9,41.6-7.6
	c13.8-10,18.6-28,28-42.3c6.3-9.7,14.9-17.7,21.7-27.1c9.4-13.1,15.2-28.4,20.8-43.6c6.3-17,12.6-34.3,13.8-52.4
	s-3.7-37.4-16.8-49.8c-5.1-4.8-11.3-8.5-15.9-13.9C339.2,157,344,131.8,332,115C319.4,97.5,294.5,96,275,86.9
	c-9.9-4.6-18.6-11.4-28.7-15.4c-10.1-4.1-22.5-4.9-31.1,1.8"/>
</svg>
